<svg width="24" height="28" viewBox="0 0 24 28" fill="none" xmlns="http://www.w3.org/2000/svg">
<mask id="mask0_5_43" style="mask-type:luminance" maskUnits="userSpaceOnUse" x="0" y="0" width="24" height="28">
<path d="M23.1975 0H0V27.195H23.1975V0Z" fill="white"/>
</mask>
<g mask="url(#mask0_5_43)">
<path d="M7.73601 20.3975L3.86536 18.1273V13.5948L0 11.3298V20.3975L11.5987 27.1949V18.1273L7.73601 15.865V20.3975Z" fill="#89D1CC"/>
<path d="M11.5986 13.5947L7.73584 15.865L11.5986 18.1272L15.4692 15.865L11.5986 13.5947Z" fill="#9FB3CF"/>
<path d="M3.86272 9.05957L0 11.3298L3.86272 13.5921L7.73337 11.3298L3.86272 9.05957Z" fill="#9FB3CF"/>
<path d="M19.335 9.05957L15.4722 11.3298L19.335 13.5921L23.1977 11.3298L19.335 9.05957Z" fill="#9FB3CF"/>
<path d="M11.5986 4.53247L7.73584 6.79473L11.5986 9.06497L15.4692 6.79473L11.5986 4.53247Z" fill="#9FB3CF"/>
<path d="M3.86279 13.5948V18.1273L7.73344 20.3975V11.3298" fill="#FFFEFB"/>
<path d="M11.5986 9.0676V13.6001L15.4692 15.8624V6.79736" fill="#FFFEFB"/>
<path d="M19.335 13.6V18.1325L15.4722 20.3948V11.3271" fill="#E0F2F3"/>
<path d="M11.5986 9.0676V13.6001L7.73584 15.8624V6.79736" fill="#E0F2F3"/>
<path d="M11.5987 0L0 6.79742L11.5987 13.6028L23.1975 6.79742L11.5987 0Z" fill="#DBD7EC"/>
<path d="M0 6.79736V11.3299L3.86272 13.6001V18.1326L7.73337 20.3949V15.8624L11.5961 18.1326V13.6001L0 6.79736Z" fill="#F2EFE8"/>
<path d="M11.5988 13.6001V18.1326L15.4695 15.8624V20.3949L19.3322 18.1326V13.6001L23.1949 11.3299V6.79736L11.5962 13.6028L11.5988 13.6001Z" fill="#B2DCBD"/>
<path d="M7.73584 20.3975L11.5986 18.1352L7.73584 15.865V20.3975Z" fill="#89D1CC"/>
<path d="M19.3345 13.5948V18.1273L15.4718 20.3975V15.865L11.6011 18.1273V27.1949L23.1999 20.3975V11.3298L19.3371 13.5921L19.3345 13.5948Z" fill="#3188B2"/>
</g>
</svg>
